<svg xmlns="http://www.w3.org/2000/svg" width="1200" height="760" viewBox="0 0 1200 760" role="img" aria-labelledby="title desc">
  <title id="title">Подземный паркинг с выделенным машино-местом</title>
  <desc id="desc">Светлая иллюстрация паркинга с зелёным выделением места рядом с лифтом</desc>
  <defs>
    <linearGradient id="bg" x1="0" x2="1" y1="0" y2="1">
      <stop offset="0" stop-color="#eaf8f1"/>
      <stop offset="1" stop-color="#f8fbf9"/>
    </linearGradient>
    <linearGradient id="slot" x1="0" x2="1">
      <stop offset="0" stop-color="#0aae69"/>
      <stop offset="1" stop-color="#40c98d"/>
    </linearGradient>
  </defs>
  <rect width="1200" height="760" rx="44" fill="url(#bg)"/>
  <path d="M110 525h980M166 217h868" stroke="#d8e6df" stroke-width="18" stroke-linecap="round"/>
  <path d="M132 590h936" stroke="#c9d9d1" stroke-width="6" stroke-dasharray="26 28"/>
  <g opacity=".9">
    <rect x="142" y="260" width="210" height="250" rx="28" fill="#fff" stroke="#d9e8e0" stroke-width="6"/>
    <rect x="392" y="260" width="210" height="250" rx="28" fill="url(#slot)" stroke="#077b4d" stroke-width="6"/>
    <rect x="642" y="260" width="210" height="250" rx="28" fill="#fff" stroke="#d9e8e0" stroke-width="6"/>
    <rect x="892" y="260" width="210" height="250" rx="28" fill="#fff" stroke="#d9e8e0" stroke-width="6"/>
  </g>
  <g transform="translate(418 322)">
    <rect x="0" y="34" width="156" height="78" rx="30" fill="#fff"/>
    <rect x="22" y="0" width="112" height="64" rx="32" fill="#ecfff5"/>
    <circle cx="38" cy="114" r="18" fill="#17212b"/>
    <circle cx="118" cy="114" r="18" fill="#17212b"/>
    <rect x="42" y="22" width="64" height="34" rx="12" fill="#0aae69" opacity=".22"/>
  </g>
  <g transform="translate(858 118)">
    <rect width="146" height="88" rx="24" fill="#fff" stroke="#d9e8e0" stroke-width="4"/>
    <path d="M44 66V30h58v36M36 30h74" stroke="#0aae69" stroke-width="8" stroke-linecap="round" stroke-linejoin="round"/>
    <circle cx="44" cy="30" r="7" fill="#0aae69"/>
    <circle cx="102" cy="30" r="7" fill="#0aae69"/>
  </g>
  <text x="142" y="650" fill="#17212b" font-family="Arial, sans-serif" font-size="42" font-weight="700">P1 · место у лифта</text>
  <text x="142" y="694" fill="#66737d" font-family="Arial, sans-serif" font-size="26">Проверено Домклик</text>
</svg>
