<svg xmlns="http://www.w3.org/2000/svg" width="1200" height="760" viewBox="0 0 1200 760" role="img" aria-labelledby="title desc">
  <title id="title">Подземное машино-место на вторичном рынке</title>
  <desc id="desc">Иллюстрация машино-места рядом с выездом из паркинга</desc>
  <defs>
    <linearGradient id="bg" x1="0" x2="1" y1="0" y2="1">
      <stop offset="0" stop-color="#f0f7f4"/>
      <stop offset="1" stop-color="#ffffff"/>
    </linearGradient>
  </defs>
  <rect width="1200" height="760" rx="44" fill="url(#bg)"/>
  <path d="M90 540c220-86 396-86 616 0 86 34 176 41 284 16" fill="none" stroke="#d8e6df" stroke-width="34" stroke-linecap="round"/>
  <path d="M122 545c214-68 374-68 592 5 73 24 152 34 268 16" fill="none" stroke="#fff" stroke-width="10" stroke-dasharray="38 34" stroke-linecap="round"/>
  <g transform="translate(240 242)">
    <rect x="0" y="82" width="278" height="118" rx="44" fill="#0aae69"/>
    <rect x="38" y="20" width="200" height="104" rx="52" fill="#dbf7ea" stroke="#0aae69" stroke-width="10"/>
    <rect x="70" y="44" width="90" height="48" rx="16" fill="#fff"/>
    <rect x="168" y="52" width="56" height="38" rx="14" fill="#fff"/>
    <circle cx="70" cy="204" r="30" fill="#17212b"/>
    <circle cx="218" cy="204" r="30" fill="#17212b"/>
  </g>
  <g transform="translate(700 220)">
    <rect width="260" height="230" rx="30" fill="#fff" stroke="#dbe7e0" stroke-width="6"/>
    <path d="M50 180h160M50 130h160M50 80h160" stroke="#e8f0ec" stroke-width="10" stroke-linecap="round"/>
    <path d="M64 54h132" stroke="#0aae69" stroke-width="14" stroke-linecap="round"/>
    <text x="66" y="116" fill="#17212b" font-family="Arial, sans-serif" font-size="34" font-weight="700">−1</text>
    <text x="66" y="158" fill="#66737d" font-family="Arial, sans-serif" font-size="22">у выезда</text>
  </g>
  <text x="128" y="650" fill="#17212b" font-family="Arial, sans-serif" font-size="42" font-weight="700">Готовое место в ЖК</text>
  <text x="128" y="694" fill="#66737d" font-family="Arial, sans-serif" font-size="26">Документы продавца подтверждены</text>
</svg>
