<svg xmlns="http://www.w3.org/2000/svg" width="1200" height="760" viewBox="0 0 1200 760" role="img" aria-labelledby="title desc">
  <title id="title">Увеличенное машино-место в новом паркинге</title>
  <desc id="desc">Иллюстрация широкого машино-места на нижнем уровне подземного паркинга</desc>
  <defs>
    <linearGradient id="bg" x1="0" x2="1" y1="0" y2="1">
      <stop offset="0" stop-color="#e7f8f0"/>
      <stop offset="1" stop-color="#f9fcfb"/>
    </linearGradient>
  </defs>
  <rect width="1200" height="760" rx="44" fill="url(#bg)"/>
  <g transform="translate(126 146)">
    <rect width="948" height="420" rx="42" fill="#fff" stroke="#dae8e1" stroke-width="8"/>
    <path d="M80 100h788M80 210h788M80 320h788" stroke="#edf3f0" stroke-width="12" stroke-linecap="round"/>
    <rect x="102" y="138" width="286" height="174" rx="32" fill="#0aae69"/>
    <rect x="440" y="138" width="210" height="174" rx="28" fill="#f5f8f6" stroke="#dae8e1" stroke-width="6"/>
    <rect x="704" y="138" width="210" height="174" rx="28" fill="#f5f8f6" stroke="#dae8e1" stroke-width="6"/>
    <g transform="translate(143 178)">
      <rect x="0" y="38" width="204" height="82" rx="32" fill="#fff"/>
      <rect x="26" y="0" width="150" height="70" rx="35" fill="#e7f8f0"/>
      <circle cx="52" cy="122" r="20" fill="#17212b"/>
      <circle cx="154" cy="122" r="20" fill="#17212b"/>
    </g>
  </g>
  <g transform="translate(836 92)">
    <rect width="160" height="78" rx="22" fill="#17212b"/>
    <text x="32" y="50" fill="#fff" font-family="Arial, sans-serif" font-size="32" font-weight="700">P2</text>
  </g>
  <text x="128" y="650" fill="#17212b" font-family="Arial, sans-serif" font-size="42" font-weight="700">Увеличенная площадь</text>
  <text x="128" y="694" fill="#66737d" font-family="Arial, sans-serif" font-size="26">Можно оформить вместе с квартирой</text>
</svg>
