<svg xmlns="http://www.w3.org/2000/svg" width="1200" height="760" viewBox="0 0 1200 760" role="img" aria-labelledby="title desc">
  <title id="title">Открытая парковка у жилого корпуса</title>
  <desc id="desc">Иллюстрация открытого машино-места с предупреждением о дополнительной проверке</desc>
  <rect width="1200" height="760" rx="44" fill="#fff8ea"/>
  <rect x="88" y="116" width="1024" height="424" rx="42" fill="#ffffff" stroke="#f1dfbd" stroke-width="8"/>
  <path d="M160 500h880M160 372h880M160 244h880" stroke="#f1eadb" stroke-width="8" stroke-dasharray="24 26"/>
  <g>
    <rect x="190" y="278" width="218" height="156" rx="28" fill="#fff4df" stroke="#d69a35" stroke-width="8"/>
    <path d="M298 304l80 132H218l80-132z" fill="#d69a35"/>
    <rect x="289" y="350" width="18" height="54" rx="9" fill="#fff"/>
    <circle cx="298" cy="418" r="10" fill="#fff"/>
  </g>
  <g transform="translate(538 274)">
    <rect x="0" y="42" width="188" height="88" rx="34" fill="#0aae69"/>
    <rect x="24" y="0" width="140" height="72" rx="36" fill="#e5f8ef" stroke="#0aae69" stroke-width="8"/>
    <circle cx="48" cy="132" r="20" fill="#17212b"/>
    <circle cx="146" cy="132" r="20" fill="#17212b"/>
  </g>
  <g transform="translate(810 262)">
    <rect x="0" y="0" width="170" height="170" rx="28" fill="#e6f7ee"/>
    <path d="M42 126V74c0-28 22-50 50-50s50 22 50 50v52" fill="none" stroke="#0aae69" stroke-width="14" stroke-linecap="round"/>
    <circle cx="92" cy="92" r="20" fill="#0aae69"/>
  </g>
  <text x="128" y="650" fill="#17212b" font-family="Arial, sans-serif" font-size="42" font-weight="700">Нужна доп. проверка</text>
  <text x="128" y="694" fill="#8a5b07" font-family="Arial, sans-serif" font-size="26">Уточним сведения о доле перед сделкой</text>
</svg>
